<?xml version="1.0" encoding="UTF-8" standalone="no"?>
<!DOCTYPE svg PUBLIC "-//W3C//DTD SVG 1.1//EN"
 "http://www.w3.org/Graphics/SVG/1.1/DTD/svg11.dtd">
<!-- Generated by graphviz version 2.44.1 (20200629.0846)
 -->
<!-- Title: dependencies Pages: 1 -->
<svg width="2451pt" height="284pt"
 viewBox="0.00 0.00 2451.00 284.00" xmlns="http://www.w3.org/2000/svg" xmlns:xlink="http://www.w3.org/1999/xlink">
<g id="graph0" class="graph" transform="scale(1 1) rotate(0) translate(4 280)">
<title>dependencies</title>
<polygon fill="white" stroke="transparent" points="-4,4 -4,-280 2447,-280 2447,4 -4,4"/>
<text text-anchor="start" x="1200.51" y="-42.4" font-family="sans-serif" font-weight="bold" font-size="14.00">Legend</text>
<polygon fill="#ffffb3" stroke="transparent" points="987.5,-10 987.5,-30 1007.5,-30 1007.5,-10 987.5,-10"/>
<text text-anchor="start" x="1011.13" y="-15.4" font-family="sans-serif" font-size="14.00"> &#160;Declarations</text>
<polygon fill="#8dd3c7" stroke="transparent" points="1100.5,-10 1100.5,-30 1120.5,-30 1120.5,-10 1100.5,-10"/>
<text text-anchor="start" x="1124.23" y="-15.4" font-family="sans-serif" font-size="14.00"> &#160;Module</text>
<polygon fill="#80b1d3" stroke="transparent" points="1186.5,-10 1186.5,-30 1206.5,-30 1206.5,-10 1186.5,-10"/>
<text text-anchor="start" x="1210.28" y="-15.4" font-family="sans-serif" font-size="14.00"> &#160;Bootstrap</text>
<polygon fill="#fdb462" stroke="transparent" points="1283.5,-10 1283.5,-30 1303.5,-30 1303.5,-10 1283.5,-10"/>
<text text-anchor="start" x="1307.17" y="-15.4" font-family="sans-serif" font-size="14.00"> &#160;Providers</text>
<polygon fill="#fb8072" stroke="transparent" points="1379.5,-10 1379.5,-30 1399.5,-30 1399.5,-10 1379.5,-10"/>
<text text-anchor="start" x="1403.23" y="-15.4" font-family="sans-serif" font-size="14.00"> &#160;Exports</text>
<g id="clust1" class="cluster">
<title>cluster_AppModule</title>
<polygon fill="none" stroke="black" stroke-dasharray="1,5" points="8,-70 8,-268 2435,-268 2435,-70 8,-70"/>
</g>
<g id="clust2" class="cluster">
<title>cluster_AppModule_declarations</title>
<polygon fill="none" stroke="black" points="168,-78 168,-130 2427,-130 2427,-78 168,-78"/>
</g>
<g id="clust18" class="cluster">
<title>cluster_AppModule_imports</title>
<polygon fill="none" stroke="black" points="16,-78 16,-130 160,-130 160,-78 16,-78"/>
</g>
<g id="clust20" class="cluster">
<title>cluster_AppModule_bootstrap</title>
<polygon fill="none" stroke="black" points="1170,-208 1170,-260 1294,-260 1294,-208 1170,-208"/>
</g>
<!-- AlertasComponent -->
<g id="node1" class="node">
<title>AlertasComponent</title>
<polygon fill="#ffffb3" stroke="black" points="2418.75,-122 2297.25,-122 2297.25,-86 2418.75,-86 2418.75,-122"/>
<text text-anchor="middle" x="2358" y="-99.8" font-family="Times,serif" font-size="14.00">AlertasComponent</text>
</g>
<!-- AppModule -->
<g id="node16" class="node">
<title>AppModule</title>
<polygon fill="#8dd3c7" stroke="black" points="1273.66,-187 1270.66,-191 1249.66,-191 1246.66,-187 1190.34,-187 1190.34,-151 1273.66,-151 1273.66,-187"/>
<text text-anchor="middle" x="1232" y="-164.8" font-family="Times,serif" font-size="14.00">AppModule</text>
</g>
<!-- AlertasComponent&#45;&gt;AppModule -->
<g id="edge1" class="edge">
<title>AlertasComponent&#45;&gt;AppModule</title>
<path fill="none" stroke="black" d="M2358,-122.32C2358,-145.66 2358,-183 2358,-183 2358,-183 1283.75,-183 1283.75,-183"/>
<polygon fill="black" stroke="black" points="1283.75,-179.5 1273.75,-183 1283.75,-186.5 1283.75,-179.5"/>
</g>
<!-- AppComponent -->
<g id="node2" class="node">
<title>AppComponent</title>
<polygon fill="#ffffb3" stroke="black" points="2278.94,-122 2173.06,-122 2173.06,-86 2278.94,-86 2278.94,-122"/>
<text text-anchor="middle" x="2226" y="-99.8" font-family="Times,serif" font-size="14.00">AppComponent</text>
</g>
<!-- AppComponent&#45;&gt;AppModule -->
<g id="edge2" class="edge">
<title>AppComponent&#45;&gt;AppModule</title>
<path fill="none" stroke="black" d="M2226,-122.29C2226,-144.21 2226,-178 2226,-178 2226,-178 1283.76,-178 1283.76,-178"/>
<polygon fill="black" stroke="black" points="1283.76,-174.5 1273.76,-178 1283.76,-181.5 1283.76,-174.5"/>
</g>
<!-- CarouselFeedComponent -->
<g id="node3" class="node">
<title>CarouselFeedComponent</title>
<polygon fill="#ffffb3" stroke="black" points="2155.31,-122 1996.69,-122 1996.69,-86 2155.31,-86 2155.31,-122"/>
<text text-anchor="middle" x="2076" y="-99.8" font-family="Times,serif" font-size="14.00">CarouselFeedComponent</text>
</g>
<!-- CarouselFeedComponent&#45;&gt;AppModule -->
<g id="edge3" class="edge">
<title>CarouselFeedComponent&#45;&gt;AppModule</title>
<path fill="none" stroke="black" d="M2076,-122.03C2076,-142.77 2076,-174 2076,-174 2076,-174 1283.85,-174 1283.85,-174"/>
<polygon fill="black" stroke="black" points="1283.85,-170.5 1273.85,-174 1283.85,-177.5 1283.85,-170.5"/>
</g>
<!-- DeletePostagemComponent -->
<g id="node4" class="node">
<title>DeletePostagemComponent</title>
<polygon fill="#ffffb3" stroke="black" points="1979.3,-122 1806.7,-122 1806.7,-86 1979.3,-86 1979.3,-122"/>
<text text-anchor="middle" x="1893" y="-99.8" font-family="Times,serif" font-size="14.00">DeletePostagemComponent</text>
</g>
<!-- DeletePostagemComponent&#45;&gt;AppModule -->
<g id="edge4" class="edge">
<title>DeletePostagemComponent&#45;&gt;AppModule</title>
<path fill="none" stroke="black" d="M1893,-122.11C1893,-141.34 1893,-169 1893,-169 1893,-169 1283.85,-169 1283.85,-169"/>
<polygon fill="black" stroke="black" points="1283.85,-165.5 1273.85,-169 1283.85,-172.5 1283.85,-165.5"/>
</g>
<!-- DeleteTemaComponent -->
<g id="node5" class="node">
<title>DeleteTemaComponent</title>
<polygon fill="#ffffb3" stroke="black" points="1788.74,-122 1639.26,-122 1639.26,-86 1788.74,-86 1788.74,-122"/>
<text text-anchor="middle" x="1714" y="-99.8" font-family="Times,serif" font-size="14.00">DeleteTemaComponent</text>
</g>
<!-- DeleteTemaComponent&#45;&gt;AppModule -->
<g id="edge5" class="edge">
<title>DeleteTemaComponent&#45;&gt;AppModule</title>
<path fill="none" stroke="black" d="M1714,-122.3C1714,-140.27 1714,-165 1714,-165 1714,-165 1283.93,-165 1283.93,-165"/>
<polygon fill="black" stroke="black" points="1283.93,-161.5 1273.93,-165 1283.93,-168.5 1283.93,-161.5"/>
</g>
<!-- FeedComponent -->
<g id="node6" class="node">
<title>FeedComponent</title>
<polygon fill="#ffffb3" stroke="black" points="1621.05,-122 1512.95,-122 1512.95,-86 1621.05,-86 1621.05,-122"/>
<text text-anchor="middle" x="1567" y="-99.8" font-family="Times,serif" font-size="14.00">FeedComponent</text>
</g>
<!-- FeedComponent&#45;&gt;AppModule -->
<g id="edge6" class="edge">
<title>FeedComponent&#45;&gt;AppModule</title>
<path fill="none" stroke="black" d="M1567,-122.03C1567,-138.4 1567,-160 1567,-160 1567,-160 1283.75,-160 1283.75,-160"/>
<polygon fill="black" stroke="black" points="1283.75,-156.5 1273.75,-160 1283.75,-163.5 1283.75,-156.5"/>
</g>
<!-- FooterComponent -->
<g id="node7" class="node">
<title>FooterComponent</title>
<polygon fill="#ffffb3" stroke="black" points="1494.88,-122 1377.12,-122 1377.12,-86 1494.88,-86 1494.88,-122"/>
<text text-anchor="middle" x="1436" y="-99.8" font-family="Times,serif" font-size="14.00">FooterComponent</text>
</g>
<!-- FooterComponent&#45;&gt;AppModule -->
<g id="edge7" class="edge">
<title>FooterComponent&#45;&gt;AppModule</title>
<path fill="none" stroke="black" d="M1436,-122.19C1436,-137.18 1436,-156 1436,-156 1436,-156 1283.77,-156 1283.77,-156"/>
<polygon fill="black" stroke="black" points="1283.77,-152.5 1273.77,-156 1283.77,-159.5 1283.77,-152.5"/>
</g>
<!-- HomeComponent -->
<g id="node8" class="node">
<title>HomeComponent</title>
<polygon fill="#ffffb3" stroke="black" points="1358.55,-122 1243.45,-122 1243.45,-86 1358.55,-86 1358.55,-122"/>
<text text-anchor="middle" x="1301" y="-99.8" font-family="Times,serif" font-size="14.00">HomeComponent</text>
</g>
<!-- HomeComponent&#45;&gt;AppModule -->
<g id="edge8" class="edge">
<title>HomeComponent&#45;&gt;AppModule</title>
<path fill="none" stroke="black" d="M1258.53,-122.11C1258.53,-122.11 1258.53,-140.99 1258.53,-140.99"/>
<polygon fill="black" stroke="black" points="1255.03,-140.99 1258.53,-150.99 1262.03,-140.99 1255.03,-140.99"/>
</g>
<!-- NavbarComponent -->
<g id="node9" class="node">
<title>NavbarComponent</title>
<polygon fill="#ffffb3" stroke="black" points="1225.03,-122 1102.97,-122 1102.97,-86 1225.03,-86 1225.03,-122"/>
<text text-anchor="middle" x="1164" y="-99.8" font-family="Times,serif" font-size="14.00">NavbarComponent</text>
</g>
<!-- NavbarComponent&#45;&gt;AppModule -->
<g id="edge9" class="edge">
<title>NavbarComponent&#45;&gt;AppModule</title>
<path fill="none" stroke="black" d="M1207.72,-122.11C1207.72,-122.11 1207.72,-140.99 1207.72,-140.99"/>
<polygon fill="black" stroke="black" points="1204.22,-140.99 1207.72,-150.99 1211.22,-140.99 1204.22,-140.99"/>
</g>
<!-- PerfilComponent -->
<g id="node10" class="node">
<title>PerfilComponent</title>
<polygon fill="#ffffb3" stroke="black" points="1085.43,-122 972.57,-122 972.57,-86 1085.43,-86 1085.43,-122"/>
<text text-anchor="middle" x="1029" y="-99.8" font-family="Times,serif" font-size="14.00">PerfilComponent</text>
</g>
<!-- PerfilComponent&#45;&gt;AppModule -->
<g id="edge10" class="edge">
<title>PerfilComponent&#45;&gt;AppModule</title>
<path fill="none" stroke="black" d="M1029,-122.19C1029,-137.18 1029,-156 1029,-156 1029,-156 1179.94,-156 1179.94,-156"/>
<polygon fill="black" stroke="black" points="1179.94,-159.5 1189.94,-156 1179.94,-152.5 1179.94,-159.5"/>
</g>
<!-- PostTemaComponent -->
<g id="node11" class="node">
<title>PostTemaComponent</title>
<polygon fill="#ffffb3" stroke="black" points="954.82,-122 817.18,-122 817.18,-86 954.82,-86 954.82,-122"/>
<text text-anchor="middle" x="886" y="-99.8" font-family="Times,serif" font-size="14.00">PostTemaComponent</text>
</g>
<!-- PostTemaComponent&#45;&gt;AppModule -->
<g id="edge11" class="edge">
<title>PostTemaComponent&#45;&gt;AppModule</title>
<path fill="none" stroke="black" d="M886,-122.03C886,-138.4 886,-160 886,-160 886,-160 1180.26,-160 1180.26,-160"/>
<polygon fill="black" stroke="black" points="1180.26,-163.5 1190.26,-160 1180.26,-156.5 1180.26,-163.5"/>
</g>
<!-- PutPostagemComponent -->
<g id="node12" class="node">
<title>PutPostagemComponent</title>
<polygon fill="#ffffb3" stroke="black" points="799.44,-122 644.56,-122 644.56,-86 799.44,-86 799.44,-122"/>
<text text-anchor="middle" x="722" y="-99.8" font-family="Times,serif" font-size="14.00">PutPostagemComponent</text>
</g>
<!-- PutPostagemComponent&#45;&gt;AppModule -->
<g id="edge12" class="edge">
<title>PutPostagemComponent&#45;&gt;AppModule</title>
<path fill="none" stroke="black" d="M722,-122.3C722,-140.27 722,-165 722,-165 722,-165 1180.26,-165 1180.26,-165"/>
<polygon fill="black" stroke="black" points="1180.26,-168.5 1190.26,-165 1180.26,-161.5 1180.26,-168.5"/>
</g>
<!-- PutTemaComponent -->
<g id="node13" class="node">
<title>PutTemaComponent</title>
<polygon fill="#ffffb3" stroke="black" points="626.88,-122 495.12,-122 495.12,-86 626.88,-86 626.88,-122"/>
<text text-anchor="middle" x="561" y="-99.8" font-family="Times,serif" font-size="14.00">PutTemaComponent</text>
</g>
<!-- PutTemaComponent&#45;&gt;AppModule -->
<g id="edge13" class="edge">
<title>PutTemaComponent&#45;&gt;AppModule</title>
<path fill="none" stroke="black" d="M561,-122.11C561,-141.34 561,-169 561,-169 561,-169 1180.28,-169 1180.28,-169"/>
<polygon fill="black" stroke="black" points="1180.28,-172.5 1190.28,-169 1180.28,-165.5 1180.28,-172.5"/>
</g>
<!-- SobreNosComponent -->
<g id="node14" class="node">
<title>SobreNosComponent</title>
<polygon fill="#ffffb3" stroke="black" points="477.04,-122 340.96,-122 340.96,-86 477.04,-86 477.04,-122"/>
<text text-anchor="middle" x="409" y="-99.8" font-family="Times,serif" font-size="14.00">SobreNosComponent</text>
</g>
<!-- SobreNosComponent&#45;&gt;AppModule -->
<g id="edge14" class="edge">
<title>SobreNosComponent&#45;&gt;AppModule</title>
<path fill="none" stroke="black" d="M409,-122.03C409,-142.77 409,-174 409,-174 409,-174 1180.34,-174 1180.34,-174"/>
<polygon fill="black" stroke="black" points="1180.34,-177.5 1190.34,-174 1180.34,-170.5 1180.34,-177.5"/>
</g>
<!-- TermosUsoComponent -->
<g id="node15" class="node">
<title>TermosUsoComponent</title>
<polygon fill="#ffffb3" stroke="black" points="322.15,-122 175.85,-122 175.85,-86 322.15,-86 322.15,-122"/>
<text text-anchor="middle" x="249" y="-99.8" font-family="Times,serif" font-size="14.00">TermosUsoComponent</text>
</g>
<!-- TermosUsoComponent&#45;&gt;AppModule -->
<g id="edge15" class="edge">
<title>TermosUsoComponent&#45;&gt;AppModule</title>
<path fill="none" stroke="black" d="M249,-122.29C249,-144.21 249,-178 249,-178 249,-178 1180.08,-178 1180.08,-178"/>
<polygon fill="black" stroke="black" points="1180.08,-181.5 1190.08,-178 1180.08,-174.5 1180.08,-181.5"/>
</g>
<!-- AppComponent  -->
<g id="node18" class="node">
<title>AppComponent </title>
<polygon fill="#80b1d3" stroke="black" points="1286.44,-252 1177.56,-252 1177.56,-216 1286.44,-216 1286.44,-252"/>
<text text-anchor="middle" x="1232" y="-229.8" font-family="Times,serif" font-size="14.00">AppComponent </text>
</g>
<!-- AppModule&#45;&gt;AppComponent  -->
<g id="edge17" class="edge">
<title>AppModule&#45;&gt;AppComponent </title>
<path fill="none" stroke="black" stroke-dasharray="1,5" d="M1232,-187.11C1232,-187.11 1232,-205.99 1232,-205.99"/>
<polygon fill="black" stroke="black" points="1228.5,-205.99 1232,-215.99 1235.5,-205.99 1228.5,-205.99"/>
</g>
<!-- AppRoutingModule -->
<g id="node17" class="node">
<title>AppRoutingModule</title>
<polygon fill="#8dd3c7" stroke="black" points="152.27,-122 149.27,-126 128.27,-126 125.27,-122 23.73,-122 23.73,-86 152.27,-86 152.27,-122"/>
<text text-anchor="middle" x="88" y="-99.8" font-family="Times,serif" font-size="14.00">AppRoutingModule</text>
</g>
<!-- AppRoutingModule&#45;&gt;AppModule -->
<g id="edge16" class="edge">
<title>AppRoutingModule&#45;&gt;AppModule</title>
<path fill="none" stroke="black" d="M88,-122.32C88,-145.66 88,-183 88,-183 88,-183 1180.27,-183 1180.27,-183"/>
<polygon fill="black" stroke="black" points="1180.27,-186.5 1190.27,-183 1180.27,-179.5 1180.27,-186.5"/>
</g>
</g>
</svg>
